# Blender v2.74 (sub 0) OBJ File: ''
# www.blender.org
o Cube_Cube_Base
v 1.240349 -0.000333 -0.372761
v 1.240349 -0.000333 1.000000
v 0.000000 -0.000333 1.000000
v 0.000000 -0.000333 -0.372761
v 0.960107 0.565249 -0.372760
v 0.582431 0.409363 -1.000000
v 0.507604 0.512063 -1.000000
v 0.653542 0.986010 -0.372760
v 3.119281 -0.942804 0.949260
v 1.240349 0.180615 -0.372760
v 3.119281 -0.761855 0.949260
v 0.000000 0.409363 -1.000000
v 0.000000 0.512063 -1.000000
v 0.805783 -0.000335 4.284117
v 0.805782 0.180614 4.284118
v 0.000000 0.180614 5.383713
v 0.000000 -0.000335 5.383713
v 0.650832 0.315481 -1.000000
v 0.650832 0.271315 -1.000000
v 0.000000 0.271315 -1.000000
v 0.000000 0.315481 -1.000000
v 0.000000 -0.000333 2.156063
v 1.125746 -0.000333 1.866080
v 1.125746 0.180615 1.542580
v 3.119281 -0.761855 0.949260
v 3.457423 -0.761854 0.949261
v 3.457423 -0.942803 0.949260
v 1.240348 0.180615 0.560630
v 3.119281 -0.942804 2.322021
v 3.119280 -0.761855 1.882651
v 1.240348 0.180615 0.560630
v 3.119280 -0.761855 1.882651
v 1.240349 0.180615 -0.372760
v 0.000000 0.986010 -0.372761
v 0.000000 0.986010 1.000000
v 0.556329 0.986010 1.000001
v 0.845504 0.498033 1.630241
v 0.960107 0.565249 0.770461
v 0.538940 0.845265 1.726136
v 0.650832 0.315481 -1.000000
v 3.457423 -0.761854 1.882651
v 3.457423 -0.942803 2.322021
v 3.119280 -0.761855 2.321895
v 3.457423 -0.761854 2.321895
v 3.182715 -0.795800 2.321919
v 3.393988 -0.795800 2.321919
v 3.119281 -0.942804 2.322021
v 3.457423 -0.942803 2.322021
v 3.182715 -0.794866 3.672926
v 3.393988 -0.794866 3.672926
v 3.182715 -0.908858 2.321997
v 3.393988 -0.908857 2.321997
v 3.242466 -0.826840 3.672948
v 3.334237 -0.826840 3.672948
v 3.393988 -0.907923 3.673004
v 3.182715 -0.907923 3.673004
v 3.242466 -0.826652 3.945849
v 3.334237 -0.826652 3.945849
v 3.242466 -0.875949 3.672982
v 3.334237 -0.875949 3.672982
v 3.242466 -0.875761 3.945883
v 3.334237 -0.875761 3.945883
v 0.525541 0.310370 4.030690
v 0.000000 0.310370 5.130285
v 0.000000 0.948491 1.700656
v -1.240349 -0.000333 -0.372761
v -1.240349 -0.000333 1.000000
v -0.960107 0.565249 -0.372760
v -0.653542 0.986010 -0.372760
v -0.507604 0.512063 -1.000000
v -0.582431 0.409363 -1.000000
v -3.119281 -0.942804 0.949260
v -3.119281 -0.761855 0.949260
v -1.240349 0.180615 -0.372760
v -0.805783 -0.000335 4.284117
v -0.805782 0.180614 4.284118
v -0.650832 0.315481 -1.000000
v -0.650832 0.271315 -1.000000
v -1.125746 -0.000333 1.866080
v -1.125746 0.180615 1.542580
v -3.457423 -0.942803 0.949260
v -3.457423 -0.761854 0.949261
v -3.119281 -0.761855 0.949260
v -1.240348 0.180615 0.560630
v -3.119280 -0.761855 1.882651
v -3.119281 -0.942804 2.322021
v -3.119280 -0.761855 1.882651
v -1.240348 0.180615 0.560630
v -1.240349 0.180615 -0.372760
v -0.556329 0.986010 1.000001
v -0.845504 0.498033 1.630241
v -0.538940 0.845265 1.726136
v -0.960107 0.565249 0.770461
v -0.650832 0.315481 -1.000000
v -3.457423 -0.942803 2.322021
v -3.457423 -0.761854 1.882651
v -3.457423 -0.761854 2.321895
v -3.119280 -0.761855 2.321895
v -3.393988 -0.795800 2.321919
v -3.182715 -0.795800 2.321919
v -3.119281 -0.942804 2.322021
v -3.457423 -0.942803 2.322021
v -3.393988 -0.794866 3.672926
v -3.182715 -0.794866 3.672926
v -3.182715 -0.908858 2.321997
v -3.393988 -0.908857 2.321997
v -3.334237 -0.826840 3.672948
v -3.242466 -0.826840 3.672948
v -3.182715 -0.907923 3.673004
v -3.393988 -0.907923 3.673004
v -3.334237 -0.826652 3.945849
v -3.242466 -0.826652 3.945849
v -3.242466 -0.875949 3.672982
v -3.334237 -0.875949 3.672982
v -3.334237 -0.875761 3.945883
v -3.242466 -0.875761 3.945883
v -0.525541 0.310370 4.030690
vn 0.000000 -1.000000 -0.000000
vn 0.682900 0.497600 -0.534900
vn 0.575400 0.000000 -0.817800
vn 0.000000 0.000000 -1.000000
vn 0.806600 0.000000 0.591100
vn 0.972600 0.202900 0.113500
vn 0.192200 0.907400 0.373700
vn 0.448400 0.893900 0.000000
vn 0.728700 0.000000 -0.684900
vn 0.000000 0.000000 1.000000
vn -0.000000 1.000000 0.000000
vn 0.753000 0.640600 0.150500
vn 0.000000 -0.917600 -0.397400
vn 0.808200 0.588900 0.000000
vn -0.448400 -0.893900 -0.000000
vn 0.000000 0.797800 -0.602900
vn 1.000000 -0.000000 0.000000
vn 0.000000 0.000700 1.000000
vn 0.000000 1.000000 -0.000700
vn 0.000000 -1.000000 0.000700
vn -1.000000 0.000000 0.000000
vn 0.304300 0.941400 0.145500
vn 0.828800 0.551100 0.096700
vn 0.956100 0.271000 0.111600
vn 0.761400 0.630600 0.150800
vn -0.000000 0.998600 0.053500
vn -0.682900 0.497600 -0.534900
vn -0.575400 0.000000 -0.817800
vn -0.806600 0.000000 0.591100
vn -0.991400 0.000000 0.131200
vn -0.192200 0.907400 0.373700
vn -0.448400 0.893900 0.000000
vn -0.728700 0.000000 -0.684900
vn -0.761100 0.633100 0.140900
vn -0.734600 0.676500 0.052000
vn 0.448400 -0.893900 -0.000000
vn -0.304300 0.941400 0.145500
vn -0.761400 0.630600 0.150800
vn -0.808200 0.588900 0.000000
vn -0.965200 0.228300 0.127700
vn -0.175900 0.965600 0.191400
vn 0.991400 0.000000 0.131200
vn 0.761100 0.633100 0.140900
vn 0.734600 0.676500 0.052000
vn 0.528100 0.755900 0.387000
vn 0.965200 0.228300 0.127700
vn 0.385900 0.921400 0.045000
vn 0.175900 0.965600 0.191400
vn -0.972600 0.202900 0.113500
vn -0.753000 0.640600 0.150500
vn -0.528100 0.755900 0.387000
vn -0.828800 0.551100 0.096700
vn -0.956100 0.271000 0.111600
vn -0.385900 0.921400 0.045000
s off
f 2//1 3//1 4//1
f 5//2 6//2 7//2
f 1//3 10//3 11//3
f 12//4 13//4 7//4
f 15//5 16//5 17//5
f 19//4 20//4 21//4
f 22//1 23//1 14//1
f 23//6 24//6 15//6
f 25//4 26//4 27//4
f 2//7 29//7 30//7
f 31//8 32//8 11//8
f 19//9 18//9 33//9
f 33//10 28//10 31//10
f 28//10 30//10 32//10
f 34//11 35//11 36//11
f 37//12 38//12 36//12
f 19//13 1//13 4//13
f 38//14 5//14 8//14
f 2//15 1//15 9//15
f 30//10 25//10 11//10
f 18//10 33//10 10//10
f 7//16 13//16 34//16
f 27//17 26//17 41//17
f 9//1 27//1 42//1
f 30//11 43//11 44//11
f 30//11 41//11 26//11
f 44//18 43//18 45//18
f 30//10 29//10 47//10
f 42//17 41//17 44//17
f 29//10 42//10 48//10
f 45//19 49//19 50//19
f 43//18 47//18 51//18
f 48//18 44//18 46//18
f 47//18 48//18 52//18
f 50//18 49//18 53//18
f 52//20 55//20 56//20
f 45//21 51//21 56//21
f 46//17 50//17 55//17
f 53//19 57//19 58//19
f 56//18 59//18 53//18
f 55//18 50//18 54//18
f 55//18 60//18 59//18
f 61//18 62//18 58//18
f 60//17 54//17 58//17
f 60//20 62//20 61//20
f 59//21 61//21 57//21
f 18//2 6//2 5//2
f 21//4 12//4 6//4
f 15//22 63//22 64//22
f 24//23 28//23 38//23
f 28//14 33//14 5//14
f 2//24 28//24 24//24
f 24//25 37//25 63//25
f 3//1 2//1 23//1
f 36//26 35//26 65//26
f 4//1 3//1 67//1
f 68//27 69//27 70//27
f 73//28 74//28 66//28
f 70//4 13//4 12//4
f 17//29 16//29 76//29
f 21//4 20//4 78//4
f 22//1 17//1 75//1
f 79//30 75//30 76//30
f 81//4 82//4 83//4
f 85//31 86//31 67//31
f 73//32 87//32 88//32
f 78//33 66//33 89//33
f 89//10 74//10 88//10
f 84//10 88//10 87//10
f 90//11 35//11 34//11
f 91//34 92//34 90//34
f 78//13 20//13 4//13
f 93//35 90//35 69//35
f 67//36 86//36 72//36
f 85//10 87//10 73//10
f 77//10 94//10 74//10
f 70//16 69//16 34//16
f 81//21 95//21 96//21
f 95//1 81//1 72//1
f 97//11 98//11 85//11
f 82//11 96//11 85//11
f 97//18 99//18 100//18
f 85//17 98//17 101//17
f 95//10 102//10 97//10
f 86//10 101//10 102//10
f 103//19 104//19 100//19
f 98//18 100//18 105//18
f 102//18 106//18 99//18
f 101//18 105//18 106//18
f 103//18 107//18 108//18
f 109//20 110//20 106//20
f 100//17 104//17 109//17
f 110//21 103//21 99//21
f 111//19 112//19 108//19
f 108//18 113//18 109//18
f 110//18 114//18 107//18
f 113//18 114//18 110//18
f 111//18 115//18 116//18
f 114//21 115//21 111//21
f 116//20 115//20 114//20
f 112//17 116//17 113//17
f 68//27 71//27 77//27
f 71//4 12//4 21//4
f 64//37 117//37 76//37
f 80//38 91//38 93//38
f 84//39 93//39 68//39
f 67//40 79//40 80//40
f 117//38 91//38 80//38
f 3//1 22//1 79//1
f 90//41 92//41 65//41
f 1//1 2//1 4//1
f 8//2 5//2 7//2
f 9//3 1//3 11//3
f 6//4 12//4 7//4
f 14//5 15//5 17//5
f 18//4 19//4 21//4
f 17//1 22//1 14//1
f 14//42 23//42 15//42
f 9//4 25//4 27//4
f 28//7 2//7 30//7
f 10//8 31//8 11//8
f 1//9 19//9 33//9
f 10//10 33//10 31//10
f 31//10 28//10 32//10
f 8//11 34//11 36//11
f 39//43 37//43 36//43
f 20//13 19//13 4//13
f 36//44 38//44 8//44
f 29//15 2//15 9//15
f 32//10 30//10 11//10
f 40//10 18//10 10//10
f 8//16 7//16 34//16
f 42//17 27//17 41//17
f 29//1 9//1 42//1
f 41//11 30//11 44//11
f 25//11 30//11 26//11
f 46//18 44//18 45//18
f 43//21 30//21 47//21
f 48//10 42//10 44//10
f 47//10 29//10 48//10
f 46//19 45//19 50//19
f 45//18 43//18 51//18
f 52//18 48//18 46//18
f 51//18 47//18 52//18
f 54//18 50//18 53//18
f 51//20 52//20 56//20
f 49//21 45//21 56//21
f 52//17 46//17 55//17
f 54//19 53//19 58//19
f 49//18 56//18 53//18
f 60//18 55//18 54//18
f 56//18 55//18 59//18
f 57//18 61//18 58//18
f 62//17 60//17 58//17
f 59//20 60//20 61//20
f 53//21 59//21 57//21
f 33//2 18//2 5//2
f 18//4 21//4 6//4
f 16//45 15//45 64//45
f 37//25 24//25 38//25
f 38//14 28//14 5//14
f 23//46 2//46 24//46
f 15//47 24//47 63//47
f 22//1 3//1 23//1
f 39//48 36//48 65//48
f 66//1 4//1 67//1
f 71//27 68//27 70//27
f 72//28 73//28 66//28
f 71//4 70//4 12//4
f 75//29 17//29 76//29
f 77//4 21//4 78//4
f 79//1 22//1 75//1
f 80//49 79//49 76//49
f 72//4 81//4 83//4
f 84//31 85//31 67//31
f 74//32 73//32 88//32
f 77//33 78//33 89//33
f 84//10 89//10 88//10
f 85//10 84//10 87//10
f 69//11 90//11 34//11
f 93//50 91//50 90//50
f 66//13 78//13 4//13
f 68//39 93//39 69//39
f 66//36 67//36 72//36
f 83//10 85//10 73//10
f 89//10 77//10 74//10
f 13//16 70//16 34//16
f 82//21 81//21 96//21
f 86//1 95//1 72//1
f 96//11 97//11 85//11
f 83//11 82//11 85//11
f 98//18 97//18 100//18
f 86//10 85//10 101//10
f 96//21 95//21 97//21
f 95//10 86//10 102//10
f 99//19 103//19 100//19
f 101//18 98//18 105//18
f 97//18 102//18 99//18
f 102//18 101//18 106//18
f 104//18 103//18 108//18
f 105//20 109//20 106//20
f 105//17 100//17 109//17
f 106//21 110//21 99//21
f 107//19 111//19 108//19
f 104//18 108//18 109//18
f 103//18 110//18 107//18
f 109//18 113//18 110//18
f 112//18 111//18 116//18
f 107//21 114//21 111//21
f 113//20 116//20 114//20
f 108//17 112//17 113//17
f 89//27 68//27 77//27
f 77//4 71//4 21//4
f 16//51 64//51 76//51
f 84//52 80//52 93//52
f 89//39 84//39 68//39
f 84//53 67//53 80//53
f 76//54 117//54 80//54
f 67//1 3//1 79//1
f 35//26 90//26 65//26
o Cube_Cube_Black
v 0.538940 0.845265 1.726136
v 0.000000 0.948491 1.700656
v 0.000000 0.452315 4.853053
v 0.218978 0.452315 3.753458
v 0.000000 0.310370 5.130285
v 0.525541 0.310370 4.030690
v 0.845504 0.498033 1.630241
v -0.538940 0.845265 1.726136
v -0.218978 0.452315 3.753458
v -0.525541 0.310370 4.030690
v -0.845504 0.498033 1.630241
vn 0.615400 0.778600 0.122600
vn 0.364300 0.928500 0.072500
vn 0.759800 0.605300 0.237200
vn -0.615400 0.778600 0.122600
vn -0.364300 0.928500 0.072500
vn -0.759800 0.605300 0.237200
vn 0.174000 0.961300 0.213800
vn 0.690100 0.644200 0.329800
vn 0.328200 0.937300 0.117000
vn -0.174000 0.961300 0.213800
vn -0.690100 0.644200 0.329800
vn -0.328200 0.937300 0.117000
s off
f 119//55 120//55 121//55
f 123//56 121//56 120//56
f 124//57 118//57 121//57
f 126//58 120//58 119//58
f 120//59 126//59 127//59
f 126//60 125//60 128//60
f 118//61 119//61 121//61
f 122//62 123//62 120//62
f 123//63 124//63 121//63
f 125//64 126//64 119//64
f 122//65 120//65 127//65
f 127//66 126//66 128//66
